<svg xmlns="http://www.w3.org/2000/svg" width="960" height="540" viewBox="0 0 960 540" role="img" aria-label="Threat map demo preview">
  <defs>
    <linearGradient id="bg" x1="0" y1="0" x2="1" y2="1">
      <stop offset="0%" stop-color="#0b0f17" />
      <stop offset="100%" stop-color="#0f172a" />
    </linearGradient>
    <radialGradient id="glow" cx="50%" cy="50%" r="50%">
      <stop offset="0%" stop-color="#ef4444" stop-opacity="0.8" />
      <stop offset="100%" stop-color="#ef4444" stop-opacity="0" />
    </radialGradient>
  </defs>

  <rect width="960" height="540" fill="url(#bg)" />

  <g stroke="#1f2937" stroke-width="1" opacity="0.45">
    <path d="M0 90 H960" />
    <path d="M0 180 H960" />
    <path d="M0 270 H960" />
    <path d="M0 360 H960" />
    <path d="M0 450 H960" />
    <path d="M120 0 V540" />
    <path d="M240 0 V540" />
    <path d="M360 0 V540" />
    <path d="M480 0 V540" />
    <path d="M600 0 V540" />
    <path d="M720 0 V540" />
    <path d="M840 0 V540" />
  </g>

  <g fill="#111827" opacity="0.9">
    <path d="M120 210 C170 160, 230 150, 300 170 C340 180, 370 220, 360 250 C340 300, 260 320, 200 300 C150 290, 110 250, 120 210 Z" />
    <path d="M420 190 C470 140, 520 130, 600 150 C660 170, 700 210, 690 250 C670 310, 580 330, 520 300 C470 280, 420 240, 420 190 Z" />
    <path d="M680 220 C730 180, 790 180, 840 210 C880 230, 900 270, 880 300 C850 350, 780 350, 720 320 C690 300, 670 260, 680 220 Z" />
    <path d="M260 340 C320 310, 380 320, 440 350 C500 380, 520 420, 500 450 C470 490, 390 490, 320 460 C280 440, 240 390, 260 340 Z" />
  </g>

  <g opacity="0.8">
    <circle cx="300" cy="210" r="28" fill="url(#glow)" />
    <circle cx="540" cy="230" r="28" fill="url(#glow)" />
    <circle cx="760" cy="260" r="28" fill="url(#glow)" />
    <circle cx="420" cy="360" r="28" fill="url(#glow)" />
  </g>

  <g fill="#ef4444">
    <circle cx="300" cy="210" r="6" />
    <circle cx="540" cy="230" r="6" />
    <circle cx="760" cy="260" r="6" />
    <circle cx="420" cy="360" r="6" />
  </g>

  <g fill="#e5e7eb" font-family="Verdana, sans-serif">
    <text x="32" y="40" font-size="24">Threat Map Demo</text>
    <text x="32" y="68" font-size="14" fill="#94a3b8">Sample attack events plotted on a dark basemap</text>
  </g>
</svg>
